G75*
G70*
%OFA0B0*%
%FSLAX24Y24*%
%IPPOS*%
%LPD*%
%AMOC8*
5,1,8,0,0,1.08239X$1,22.5*
%
%ADD10C,0.0000*%
%ADD11C,0.0160*%
D10*
X001053Y001873D02*
X001055Y001923D01*
X001061Y001973D01*
X001071Y002022D01*
X001085Y002070D01*
X001102Y002117D01*
X001123Y002162D01*
X001148Y002206D01*
X001176Y002247D01*
X001208Y002286D01*
X001242Y002323D01*
X001279Y002357D01*
X001319Y002387D01*
X001361Y002414D01*
X001405Y002438D01*
X001451Y002459D01*
X001498Y002475D01*
X001546Y002488D01*
X001596Y002497D01*
X001645Y002502D01*
X001696Y002503D01*
X001746Y002500D01*
X001795Y002493D01*
X001844Y002482D01*
X001892Y002467D01*
X001938Y002449D01*
X001983Y002427D01*
X002026Y002401D01*
X002067Y002372D01*
X002106Y002340D01*
X002142Y002305D01*
X002174Y002267D01*
X002204Y002227D01*
X002231Y002184D01*
X002254Y002140D01*
X002273Y002094D01*
X002289Y002046D01*
X002301Y001997D01*
X002309Y001948D01*
X002313Y001898D01*
X002313Y001848D01*
X002309Y001798D01*
X002301Y001749D01*
X002289Y001700D01*
X002273Y001652D01*
X002254Y001606D01*
X002231Y001562D01*
X002204Y001519D01*
X002174Y001479D01*
X002142Y001441D01*
X002106Y001406D01*
X002067Y001374D01*
X002026Y001345D01*
X001983Y001319D01*
X001938Y001297D01*
X001892Y001279D01*
X001844Y001264D01*
X001795Y001253D01*
X001746Y001246D01*
X001696Y001243D01*
X001645Y001244D01*
X001596Y001249D01*
X001546Y001258D01*
X001498Y001271D01*
X001451Y001287D01*
X001405Y001308D01*
X001361Y001332D01*
X001319Y001359D01*
X001279Y001389D01*
X001242Y001423D01*
X001208Y001460D01*
X001176Y001499D01*
X001148Y001540D01*
X001123Y001584D01*
X001102Y001629D01*
X001085Y001676D01*
X001071Y001724D01*
X001061Y001773D01*
X001055Y001823D01*
X001053Y001873D01*
X005328Y009103D02*
X005330Y009140D01*
X005336Y009177D01*
X005345Y009213D01*
X005359Y009247D01*
X005376Y009280D01*
X005396Y009312D01*
X005419Y009341D01*
X005445Y009367D01*
X005474Y009390D01*
X005505Y009410D01*
X005539Y009427D01*
X005573Y009441D01*
X005609Y009450D01*
X005646Y009456D01*
X005683Y009458D01*
X005720Y009456D01*
X005757Y009450D01*
X005793Y009441D01*
X005827Y009427D01*
X005860Y009410D01*
X005892Y009390D01*
X005921Y009367D01*
X005947Y009341D01*
X005970Y009312D01*
X005990Y009281D01*
X006007Y009247D01*
X006021Y009213D01*
X006030Y009177D01*
X006036Y009140D01*
X006038Y009103D01*
X006036Y009066D01*
X006030Y009029D01*
X006021Y008993D01*
X006007Y008959D01*
X005990Y008926D01*
X005970Y008894D01*
X005947Y008865D01*
X005921Y008839D01*
X005892Y008816D01*
X005861Y008796D01*
X005827Y008779D01*
X005793Y008765D01*
X005757Y008756D01*
X005720Y008750D01*
X005683Y008748D01*
X005646Y008750D01*
X005609Y008756D01*
X005573Y008765D01*
X005539Y008779D01*
X005506Y008796D01*
X005474Y008816D01*
X005445Y008839D01*
X005419Y008865D01*
X005396Y008894D01*
X005376Y008925D01*
X005359Y008959D01*
X005345Y008993D01*
X005336Y009029D01*
X005330Y009066D01*
X005328Y009103D01*
X005328Y012643D02*
X005330Y012680D01*
X005336Y012717D01*
X005345Y012753D01*
X005359Y012787D01*
X005376Y012820D01*
X005396Y012852D01*
X005419Y012881D01*
X005445Y012907D01*
X005474Y012930D01*
X005505Y012950D01*
X005539Y012967D01*
X005573Y012981D01*
X005609Y012990D01*
X005646Y012996D01*
X005683Y012998D01*
X005720Y012996D01*
X005757Y012990D01*
X005793Y012981D01*
X005827Y012967D01*
X005860Y012950D01*
X005892Y012930D01*
X005921Y012907D01*
X005947Y012881D01*
X005970Y012852D01*
X005990Y012821D01*
X006007Y012787D01*
X006021Y012753D01*
X006030Y012717D01*
X006036Y012680D01*
X006038Y012643D01*
X006036Y012606D01*
X006030Y012569D01*
X006021Y012533D01*
X006007Y012499D01*
X005990Y012466D01*
X005970Y012434D01*
X005947Y012405D01*
X005921Y012379D01*
X005892Y012356D01*
X005861Y012336D01*
X005827Y012319D01*
X005793Y012305D01*
X005757Y012296D01*
X005720Y012290D01*
X005683Y012288D01*
X005646Y012290D01*
X005609Y012296D01*
X005573Y012305D01*
X005539Y012319D01*
X005506Y012336D01*
X005474Y012356D01*
X005445Y012379D01*
X005419Y012405D01*
X005396Y012434D01*
X005376Y012465D01*
X005359Y012499D01*
X005345Y012533D01*
X005336Y012569D01*
X005330Y012606D01*
X005328Y012643D01*
X011828Y012643D02*
X011830Y012680D01*
X011836Y012717D01*
X011845Y012753D01*
X011859Y012787D01*
X011876Y012820D01*
X011896Y012852D01*
X011919Y012881D01*
X011945Y012907D01*
X011974Y012930D01*
X012005Y012950D01*
X012039Y012967D01*
X012073Y012981D01*
X012109Y012990D01*
X012146Y012996D01*
X012183Y012998D01*
X012220Y012996D01*
X012257Y012990D01*
X012293Y012981D01*
X012327Y012967D01*
X012360Y012950D01*
X012392Y012930D01*
X012421Y012907D01*
X012447Y012881D01*
X012470Y012852D01*
X012490Y012821D01*
X012507Y012787D01*
X012521Y012753D01*
X012530Y012717D01*
X012536Y012680D01*
X012538Y012643D01*
X012536Y012606D01*
X012530Y012569D01*
X012521Y012533D01*
X012507Y012499D01*
X012490Y012466D01*
X012470Y012434D01*
X012447Y012405D01*
X012421Y012379D01*
X012392Y012356D01*
X012361Y012336D01*
X012327Y012319D01*
X012293Y012305D01*
X012257Y012296D01*
X012220Y012290D01*
X012183Y012288D01*
X012146Y012290D01*
X012109Y012296D01*
X012073Y012305D01*
X012039Y012319D01*
X012006Y012336D01*
X011974Y012356D01*
X011945Y012379D01*
X011919Y012405D01*
X011896Y012434D01*
X011876Y012465D01*
X011859Y012499D01*
X011845Y012533D01*
X011836Y012569D01*
X011830Y012606D01*
X011828Y012643D01*
X011828Y014553D02*
X011830Y014590D01*
X011836Y014627D01*
X011845Y014663D01*
X011859Y014697D01*
X011876Y014730D01*
X011896Y014762D01*
X011919Y014791D01*
X011945Y014817D01*
X011974Y014840D01*
X012005Y014860D01*
X012039Y014877D01*
X012073Y014891D01*
X012109Y014900D01*
X012146Y014906D01*
X012183Y014908D01*
X012220Y014906D01*
X012257Y014900D01*
X012293Y014891D01*
X012327Y014877D01*
X012360Y014860D01*
X012392Y014840D01*
X012421Y014817D01*
X012447Y014791D01*
X012470Y014762D01*
X012490Y014731D01*
X012507Y014697D01*
X012521Y014663D01*
X012530Y014627D01*
X012536Y014590D01*
X012538Y014553D01*
X012536Y014516D01*
X012530Y014479D01*
X012521Y014443D01*
X012507Y014409D01*
X012490Y014376D01*
X012470Y014344D01*
X012447Y014315D01*
X012421Y014289D01*
X012392Y014266D01*
X012361Y014246D01*
X012327Y014229D01*
X012293Y014215D01*
X012257Y014206D01*
X012220Y014200D01*
X012183Y014198D01*
X012146Y014200D01*
X012109Y014206D01*
X012073Y014215D01*
X012039Y014229D01*
X012006Y014246D01*
X011974Y014266D01*
X011945Y014289D01*
X011919Y014315D01*
X011896Y014344D01*
X011876Y014375D01*
X011859Y014409D01*
X011845Y014443D01*
X011836Y014479D01*
X011830Y014516D01*
X011828Y014553D01*
X011828Y018093D02*
X011830Y018130D01*
X011836Y018167D01*
X011845Y018203D01*
X011859Y018237D01*
X011876Y018270D01*
X011896Y018302D01*
X011919Y018331D01*
X011945Y018357D01*
X011974Y018380D01*
X012005Y018400D01*
X012039Y018417D01*
X012073Y018431D01*
X012109Y018440D01*
X012146Y018446D01*
X012183Y018448D01*
X012220Y018446D01*
X012257Y018440D01*
X012293Y018431D01*
X012327Y018417D01*
X012360Y018400D01*
X012392Y018380D01*
X012421Y018357D01*
X012447Y018331D01*
X012470Y018302D01*
X012490Y018271D01*
X012507Y018237D01*
X012521Y018203D01*
X012530Y018167D01*
X012536Y018130D01*
X012538Y018093D01*
X012536Y018056D01*
X012530Y018019D01*
X012521Y017983D01*
X012507Y017949D01*
X012490Y017916D01*
X012470Y017884D01*
X012447Y017855D01*
X012421Y017829D01*
X012392Y017806D01*
X012361Y017786D01*
X012327Y017769D01*
X012293Y017755D01*
X012257Y017746D01*
X012220Y017740D01*
X012183Y017738D01*
X012146Y017740D01*
X012109Y017746D01*
X012073Y017755D01*
X012039Y017769D01*
X012006Y017786D01*
X011974Y017806D01*
X011945Y017829D01*
X011919Y017855D01*
X011896Y017884D01*
X011876Y017915D01*
X011859Y017949D01*
X011845Y017983D01*
X011836Y018019D01*
X011830Y018056D01*
X011828Y018093D01*
X020599Y027041D02*
X020601Y027075D01*
X020607Y027109D01*
X020617Y027142D01*
X020630Y027173D01*
X020648Y027203D01*
X020668Y027231D01*
X020692Y027256D01*
X020718Y027278D01*
X020746Y027296D01*
X020777Y027312D01*
X020809Y027324D01*
X020843Y027332D01*
X020877Y027336D01*
X020911Y027336D01*
X020945Y027332D01*
X020979Y027324D01*
X021011Y027312D01*
X021041Y027296D01*
X021070Y027278D01*
X021096Y027256D01*
X021120Y027231D01*
X021140Y027203D01*
X021158Y027173D01*
X021171Y027142D01*
X021181Y027109D01*
X021187Y027075D01*
X021189Y027041D01*
X021187Y027007D01*
X021181Y026973D01*
X021171Y026940D01*
X021158Y026909D01*
X021140Y026879D01*
X021120Y026851D01*
X021096Y026826D01*
X021070Y026804D01*
X021042Y026786D01*
X021011Y026770D01*
X020979Y026758D01*
X020945Y026750D01*
X020911Y026746D01*
X020877Y026746D01*
X020843Y026750D01*
X020809Y026758D01*
X020777Y026770D01*
X020746Y026786D01*
X020718Y026804D01*
X020692Y026826D01*
X020668Y026851D01*
X020648Y026879D01*
X020630Y026909D01*
X020617Y026940D01*
X020607Y026973D01*
X020601Y027007D01*
X020599Y027041D01*
X018630Y029010D02*
X018632Y029044D01*
X018638Y029078D01*
X018648Y029111D01*
X018661Y029142D01*
X018679Y029172D01*
X018699Y029200D01*
X018723Y029225D01*
X018749Y029247D01*
X018777Y029265D01*
X018808Y029281D01*
X018840Y029293D01*
X018874Y029301D01*
X018908Y029305D01*
X018942Y029305D01*
X018976Y029301D01*
X019010Y029293D01*
X019042Y029281D01*
X019072Y029265D01*
X019101Y029247D01*
X019127Y029225D01*
X019151Y029200D01*
X019171Y029172D01*
X019189Y029142D01*
X019202Y029111D01*
X019212Y029078D01*
X019218Y029044D01*
X019220Y029010D01*
X019218Y028976D01*
X019212Y028942D01*
X019202Y028909D01*
X019189Y028878D01*
X019171Y028848D01*
X019151Y028820D01*
X019127Y028795D01*
X019101Y028773D01*
X019073Y028755D01*
X019042Y028739D01*
X019010Y028727D01*
X018976Y028719D01*
X018942Y028715D01*
X018908Y028715D01*
X018874Y028719D01*
X018840Y028727D01*
X018808Y028739D01*
X018777Y028755D01*
X018749Y028773D01*
X018723Y028795D01*
X018699Y028820D01*
X018679Y028848D01*
X018661Y028878D01*
X018648Y028909D01*
X018638Y028942D01*
X018632Y028976D01*
X018630Y029010D01*
X022567Y029010D02*
X022569Y029044D01*
X022575Y029078D01*
X022585Y029111D01*
X022598Y029142D01*
X022616Y029172D01*
X022636Y029200D01*
X022660Y029225D01*
X022686Y029247D01*
X022714Y029265D01*
X022745Y029281D01*
X022777Y029293D01*
X022811Y029301D01*
X022845Y029305D01*
X022879Y029305D01*
X022913Y029301D01*
X022947Y029293D01*
X022979Y029281D01*
X023009Y029265D01*
X023038Y029247D01*
X023064Y029225D01*
X023088Y029200D01*
X023108Y029172D01*
X023126Y029142D01*
X023139Y029111D01*
X023149Y029078D01*
X023155Y029044D01*
X023157Y029010D01*
X023155Y028976D01*
X023149Y028942D01*
X023139Y028909D01*
X023126Y028878D01*
X023108Y028848D01*
X023088Y028820D01*
X023064Y028795D01*
X023038Y028773D01*
X023010Y028755D01*
X022979Y028739D01*
X022947Y028727D01*
X022913Y028719D01*
X022879Y028715D01*
X022845Y028715D01*
X022811Y028719D01*
X022777Y028727D01*
X022745Y028739D01*
X022714Y028755D01*
X022686Y028773D01*
X022660Y028795D01*
X022636Y028820D01*
X022616Y028848D01*
X022598Y028878D01*
X022585Y028909D01*
X022575Y028942D01*
X022569Y028976D01*
X022567Y029010D01*
X023630Y029010D02*
X023632Y029044D01*
X023638Y029078D01*
X023648Y029111D01*
X023661Y029142D01*
X023679Y029172D01*
X023699Y029200D01*
X023723Y029225D01*
X023749Y029247D01*
X023777Y029265D01*
X023808Y029281D01*
X023840Y029293D01*
X023874Y029301D01*
X023908Y029305D01*
X023942Y029305D01*
X023976Y029301D01*
X024010Y029293D01*
X024042Y029281D01*
X024072Y029265D01*
X024101Y029247D01*
X024127Y029225D01*
X024151Y029200D01*
X024171Y029172D01*
X024189Y029142D01*
X024202Y029111D01*
X024212Y029078D01*
X024218Y029044D01*
X024220Y029010D01*
X024218Y028976D01*
X024212Y028942D01*
X024202Y028909D01*
X024189Y028878D01*
X024171Y028848D01*
X024151Y028820D01*
X024127Y028795D01*
X024101Y028773D01*
X024073Y028755D01*
X024042Y028739D01*
X024010Y028727D01*
X023976Y028719D01*
X023942Y028715D01*
X023908Y028715D01*
X023874Y028719D01*
X023840Y028727D01*
X023808Y028739D01*
X023777Y028755D01*
X023749Y028773D01*
X023723Y028795D01*
X023699Y028820D01*
X023679Y028848D01*
X023661Y028878D01*
X023648Y028909D01*
X023638Y028942D01*
X023632Y028976D01*
X023630Y029010D01*
X025599Y027041D02*
X025601Y027075D01*
X025607Y027109D01*
X025617Y027142D01*
X025630Y027173D01*
X025648Y027203D01*
X025668Y027231D01*
X025692Y027256D01*
X025718Y027278D01*
X025746Y027296D01*
X025777Y027312D01*
X025809Y027324D01*
X025843Y027332D01*
X025877Y027336D01*
X025911Y027336D01*
X025945Y027332D01*
X025979Y027324D01*
X026011Y027312D01*
X026041Y027296D01*
X026070Y027278D01*
X026096Y027256D01*
X026120Y027231D01*
X026140Y027203D01*
X026158Y027173D01*
X026171Y027142D01*
X026181Y027109D01*
X026187Y027075D01*
X026189Y027041D01*
X026187Y027007D01*
X026181Y026973D01*
X026171Y026940D01*
X026158Y026909D01*
X026140Y026879D01*
X026120Y026851D01*
X026096Y026826D01*
X026070Y026804D01*
X026042Y026786D01*
X026011Y026770D01*
X025979Y026758D01*
X025945Y026750D01*
X025911Y026746D01*
X025877Y026746D01*
X025843Y026750D01*
X025809Y026758D01*
X025777Y026770D01*
X025746Y026786D01*
X025718Y026804D01*
X025692Y026826D01*
X025668Y026851D01*
X025648Y026879D01*
X025630Y026909D01*
X025617Y026940D01*
X025607Y026973D01*
X025601Y027007D01*
X025599Y027041D01*
X027567Y029010D02*
X027569Y029044D01*
X027575Y029078D01*
X027585Y029111D01*
X027598Y029142D01*
X027616Y029172D01*
X027636Y029200D01*
X027660Y029225D01*
X027686Y029247D01*
X027714Y029265D01*
X027745Y029281D01*
X027777Y029293D01*
X027811Y029301D01*
X027845Y029305D01*
X027879Y029305D01*
X027913Y029301D01*
X027947Y029293D01*
X027979Y029281D01*
X028009Y029265D01*
X028038Y029247D01*
X028064Y029225D01*
X028088Y029200D01*
X028108Y029172D01*
X028126Y029142D01*
X028139Y029111D01*
X028149Y029078D01*
X028155Y029044D01*
X028157Y029010D01*
X028155Y028976D01*
X028149Y028942D01*
X028139Y028909D01*
X028126Y028878D01*
X028108Y028848D01*
X028088Y028820D01*
X028064Y028795D01*
X028038Y028773D01*
X028010Y028755D01*
X027979Y028739D01*
X027947Y028727D01*
X027913Y028719D01*
X027879Y028715D01*
X027845Y028715D01*
X027811Y028719D01*
X027777Y028727D01*
X027745Y028739D01*
X027714Y028755D01*
X027686Y028773D01*
X027660Y028795D01*
X027636Y028820D01*
X027616Y028848D01*
X027598Y028878D01*
X027585Y028909D01*
X027575Y028942D01*
X027569Y028976D01*
X027567Y029010D01*
X028630Y029010D02*
X028632Y029044D01*
X028638Y029078D01*
X028648Y029111D01*
X028661Y029142D01*
X028679Y029172D01*
X028699Y029200D01*
X028723Y029225D01*
X028749Y029247D01*
X028777Y029265D01*
X028808Y029281D01*
X028840Y029293D01*
X028874Y029301D01*
X028908Y029305D01*
X028942Y029305D01*
X028976Y029301D01*
X029010Y029293D01*
X029042Y029281D01*
X029072Y029265D01*
X029101Y029247D01*
X029127Y029225D01*
X029151Y029200D01*
X029171Y029172D01*
X029189Y029142D01*
X029202Y029111D01*
X029212Y029078D01*
X029218Y029044D01*
X029220Y029010D01*
X029218Y028976D01*
X029212Y028942D01*
X029202Y028909D01*
X029189Y028878D01*
X029171Y028848D01*
X029151Y028820D01*
X029127Y028795D01*
X029101Y028773D01*
X029073Y028755D01*
X029042Y028739D01*
X029010Y028727D01*
X028976Y028719D01*
X028942Y028715D01*
X028908Y028715D01*
X028874Y028719D01*
X028840Y028727D01*
X028808Y028739D01*
X028777Y028755D01*
X028749Y028773D01*
X028723Y028795D01*
X028699Y028820D01*
X028679Y028848D01*
X028661Y028878D01*
X028648Y028909D01*
X028638Y028942D01*
X028632Y028976D01*
X028630Y029010D01*
X030599Y027041D02*
X030601Y027075D01*
X030607Y027109D01*
X030617Y027142D01*
X030630Y027173D01*
X030648Y027203D01*
X030668Y027231D01*
X030692Y027256D01*
X030718Y027278D01*
X030746Y027296D01*
X030777Y027312D01*
X030809Y027324D01*
X030843Y027332D01*
X030877Y027336D01*
X030911Y027336D01*
X030945Y027332D01*
X030979Y027324D01*
X031011Y027312D01*
X031041Y027296D01*
X031070Y027278D01*
X031096Y027256D01*
X031120Y027231D01*
X031140Y027203D01*
X031158Y027173D01*
X031171Y027142D01*
X031181Y027109D01*
X031187Y027075D01*
X031189Y027041D01*
X031187Y027007D01*
X031181Y026973D01*
X031171Y026940D01*
X031158Y026909D01*
X031140Y026879D01*
X031120Y026851D01*
X031096Y026826D01*
X031070Y026804D01*
X031042Y026786D01*
X031011Y026770D01*
X030979Y026758D01*
X030945Y026750D01*
X030911Y026746D01*
X030877Y026746D01*
X030843Y026750D01*
X030809Y026758D01*
X030777Y026770D01*
X030746Y026786D01*
X030718Y026804D01*
X030692Y026826D01*
X030668Y026851D01*
X030648Y026879D01*
X030630Y026909D01*
X030617Y026940D01*
X030607Y026973D01*
X030601Y027007D01*
X030599Y027041D01*
X032567Y029010D02*
X032569Y029044D01*
X032575Y029078D01*
X032585Y029111D01*
X032598Y029142D01*
X032616Y029172D01*
X032636Y029200D01*
X032660Y029225D01*
X032686Y029247D01*
X032714Y029265D01*
X032745Y029281D01*
X032777Y029293D01*
X032811Y029301D01*
X032845Y029305D01*
X032879Y029305D01*
X032913Y029301D01*
X032947Y029293D01*
X032979Y029281D01*
X033009Y029265D01*
X033038Y029247D01*
X033064Y029225D01*
X033088Y029200D01*
X033108Y029172D01*
X033126Y029142D01*
X033139Y029111D01*
X033149Y029078D01*
X033155Y029044D01*
X033157Y029010D01*
X033155Y028976D01*
X033149Y028942D01*
X033139Y028909D01*
X033126Y028878D01*
X033108Y028848D01*
X033088Y028820D01*
X033064Y028795D01*
X033038Y028773D01*
X033010Y028755D01*
X032979Y028739D01*
X032947Y028727D01*
X032913Y028719D01*
X032879Y028715D01*
X032845Y028715D01*
X032811Y028719D01*
X032777Y028727D01*
X032745Y028739D01*
X032714Y028755D01*
X032686Y028773D01*
X032660Y028795D01*
X032636Y028820D01*
X032616Y028848D01*
X032598Y028878D01*
X032585Y028909D01*
X032575Y028942D01*
X032569Y028976D01*
X032567Y029010D01*
X033808Y019373D02*
X033810Y019399D01*
X033816Y019425D01*
X033825Y019449D01*
X033838Y019472D01*
X033855Y019492D01*
X033874Y019510D01*
X033896Y019525D01*
X033919Y019536D01*
X033944Y019544D01*
X033970Y019548D01*
X033996Y019548D01*
X034022Y019544D01*
X034047Y019536D01*
X034071Y019525D01*
X034092Y019510D01*
X034111Y019492D01*
X034128Y019472D01*
X034141Y019449D01*
X034150Y019425D01*
X034156Y019399D01*
X034158Y019373D01*
X034156Y019347D01*
X034150Y019321D01*
X034141Y019297D01*
X034128Y019274D01*
X034111Y019254D01*
X034092Y019236D01*
X034070Y019221D01*
X034047Y019210D01*
X034022Y019202D01*
X033996Y019198D01*
X033970Y019198D01*
X033944Y019202D01*
X033919Y019210D01*
X033895Y019221D01*
X033874Y019236D01*
X033855Y019254D01*
X033838Y019274D01*
X033825Y019297D01*
X033816Y019321D01*
X033810Y019347D01*
X033808Y019373D01*
X033808Y018573D02*
X033810Y018599D01*
X033816Y018625D01*
X033825Y018649D01*
X033838Y018672D01*
X033855Y018692D01*
X033874Y018710D01*
X033896Y018725D01*
X033919Y018736D01*
X033944Y018744D01*
X033970Y018748D01*
X033996Y018748D01*
X034022Y018744D01*
X034047Y018736D01*
X034071Y018725D01*
X034092Y018710D01*
X034111Y018692D01*
X034128Y018672D01*
X034141Y018649D01*
X034150Y018625D01*
X034156Y018599D01*
X034158Y018573D01*
X034156Y018547D01*
X034150Y018521D01*
X034141Y018497D01*
X034128Y018474D01*
X034111Y018454D01*
X034092Y018436D01*
X034070Y018421D01*
X034047Y018410D01*
X034022Y018402D01*
X033996Y018398D01*
X033970Y018398D01*
X033944Y018402D01*
X033919Y018410D01*
X033895Y018421D01*
X033874Y018436D01*
X033855Y018454D01*
X033838Y018474D01*
X033825Y018497D01*
X033816Y018521D01*
X033810Y018547D01*
X033808Y018573D01*
X031808Y018973D02*
X031810Y018999D01*
X031816Y019025D01*
X031825Y019049D01*
X031838Y019072D01*
X031855Y019092D01*
X031874Y019110D01*
X031896Y019125D01*
X031919Y019136D01*
X031944Y019144D01*
X031970Y019148D01*
X031996Y019148D01*
X032022Y019144D01*
X032047Y019136D01*
X032071Y019125D01*
X032092Y019110D01*
X032111Y019092D01*
X032128Y019072D01*
X032141Y019049D01*
X032150Y019025D01*
X032156Y018999D01*
X032158Y018973D01*
X032156Y018947D01*
X032150Y018921D01*
X032141Y018897D01*
X032128Y018874D01*
X032111Y018854D01*
X032092Y018836D01*
X032070Y018821D01*
X032047Y018810D01*
X032022Y018802D01*
X031996Y018798D01*
X031970Y018798D01*
X031944Y018802D01*
X031919Y018810D01*
X031895Y018821D01*
X031874Y018836D01*
X031855Y018854D01*
X031838Y018874D01*
X031825Y018897D01*
X031816Y018921D01*
X031810Y018947D01*
X031808Y018973D01*
X039328Y012393D02*
X039330Y012430D01*
X039336Y012467D01*
X039345Y012503D01*
X039359Y012537D01*
X039376Y012570D01*
X039396Y012602D01*
X039419Y012631D01*
X039445Y012657D01*
X039474Y012680D01*
X039505Y012700D01*
X039539Y012717D01*
X039573Y012731D01*
X039609Y012740D01*
X039646Y012746D01*
X039683Y012748D01*
X039720Y012746D01*
X039757Y012740D01*
X039793Y012731D01*
X039827Y012717D01*
X039860Y012700D01*
X039892Y012680D01*
X039921Y012657D01*
X039947Y012631D01*
X039970Y012602D01*
X039990Y012571D01*
X040007Y012537D01*
X040021Y012503D01*
X040030Y012467D01*
X040036Y012430D01*
X040038Y012393D01*
X040036Y012356D01*
X040030Y012319D01*
X040021Y012283D01*
X040007Y012249D01*
X039990Y012216D01*
X039970Y012184D01*
X039947Y012155D01*
X039921Y012129D01*
X039892Y012106D01*
X039861Y012086D01*
X039827Y012069D01*
X039793Y012055D01*
X039757Y012046D01*
X039720Y012040D01*
X039683Y012038D01*
X039646Y012040D01*
X039609Y012046D01*
X039573Y012055D01*
X039539Y012069D01*
X039506Y012086D01*
X039474Y012106D01*
X039445Y012129D01*
X039419Y012155D01*
X039396Y012184D01*
X039376Y012215D01*
X039359Y012249D01*
X039345Y012283D01*
X039336Y012319D01*
X039330Y012356D01*
X039328Y012393D01*
X039328Y008853D02*
X039330Y008890D01*
X039336Y008927D01*
X039345Y008963D01*
X039359Y008997D01*
X039376Y009030D01*
X039396Y009062D01*
X039419Y009091D01*
X039445Y009117D01*
X039474Y009140D01*
X039505Y009160D01*
X039539Y009177D01*
X039573Y009191D01*
X039609Y009200D01*
X039646Y009206D01*
X039683Y009208D01*
X039720Y009206D01*
X039757Y009200D01*
X039793Y009191D01*
X039827Y009177D01*
X039860Y009160D01*
X039892Y009140D01*
X039921Y009117D01*
X039947Y009091D01*
X039970Y009062D01*
X039990Y009031D01*
X040007Y008997D01*
X040021Y008963D01*
X040030Y008927D01*
X040036Y008890D01*
X040038Y008853D01*
X040036Y008816D01*
X040030Y008779D01*
X040021Y008743D01*
X040007Y008709D01*
X039990Y008676D01*
X039970Y008644D01*
X039947Y008615D01*
X039921Y008589D01*
X039892Y008566D01*
X039861Y008546D01*
X039827Y008529D01*
X039793Y008515D01*
X039757Y008506D01*
X039720Y008500D01*
X039683Y008498D01*
X039646Y008500D01*
X039609Y008506D01*
X039573Y008515D01*
X039539Y008529D01*
X039506Y008546D01*
X039474Y008566D01*
X039445Y008589D01*
X039419Y008615D01*
X039396Y008644D01*
X039376Y008675D01*
X039359Y008709D01*
X039345Y008743D01*
X039336Y008779D01*
X039330Y008816D01*
X039328Y008853D01*
X045828Y008853D02*
X045830Y008890D01*
X045836Y008927D01*
X045845Y008963D01*
X045859Y008997D01*
X045876Y009030D01*
X045896Y009062D01*
X045919Y009091D01*
X045945Y009117D01*
X045974Y009140D01*
X046005Y009160D01*
X046039Y009177D01*
X046073Y009191D01*
X046109Y009200D01*
X046146Y009206D01*
X046183Y009208D01*
X046220Y009206D01*
X046257Y009200D01*
X046293Y009191D01*
X046327Y009177D01*
X046360Y009160D01*
X046392Y009140D01*
X046421Y009117D01*
X046447Y009091D01*
X046470Y009062D01*
X046490Y009031D01*
X046507Y008997D01*
X046521Y008963D01*
X046530Y008927D01*
X046536Y008890D01*
X046538Y008853D01*
X046536Y008816D01*
X046530Y008779D01*
X046521Y008743D01*
X046507Y008709D01*
X046490Y008676D01*
X046470Y008644D01*
X046447Y008615D01*
X046421Y008589D01*
X046392Y008566D01*
X046361Y008546D01*
X046327Y008529D01*
X046293Y008515D01*
X046257Y008506D01*
X046220Y008500D01*
X046183Y008498D01*
X046146Y008500D01*
X046109Y008506D01*
X046073Y008515D01*
X046039Y008529D01*
X046006Y008546D01*
X045974Y008566D01*
X045945Y008589D01*
X045919Y008615D01*
X045896Y008644D01*
X045876Y008675D01*
X045859Y008709D01*
X045845Y008743D01*
X045836Y008779D01*
X045830Y008816D01*
X045828Y008853D01*
X045828Y012393D02*
X045830Y012430D01*
X045836Y012467D01*
X045845Y012503D01*
X045859Y012537D01*
X045876Y012570D01*
X045896Y012602D01*
X045919Y012631D01*
X045945Y012657D01*
X045974Y012680D01*
X046005Y012700D01*
X046039Y012717D01*
X046073Y012731D01*
X046109Y012740D01*
X046146Y012746D01*
X046183Y012748D01*
X046220Y012746D01*
X046257Y012740D01*
X046293Y012731D01*
X046327Y012717D01*
X046360Y012700D01*
X046392Y012680D01*
X046421Y012657D01*
X046447Y012631D01*
X046470Y012602D01*
X046490Y012571D01*
X046507Y012537D01*
X046521Y012503D01*
X046530Y012467D01*
X046536Y012430D01*
X046538Y012393D01*
X046536Y012356D01*
X046530Y012319D01*
X046521Y012283D01*
X046507Y012249D01*
X046490Y012216D01*
X046470Y012184D01*
X046447Y012155D01*
X046421Y012129D01*
X046392Y012106D01*
X046361Y012086D01*
X046327Y012069D01*
X046293Y012055D01*
X046257Y012046D01*
X046220Y012040D01*
X046183Y012038D01*
X046146Y012040D01*
X046109Y012046D01*
X046073Y012055D01*
X046039Y012069D01*
X046006Y012086D01*
X045974Y012106D01*
X045945Y012129D01*
X045919Y012155D01*
X045896Y012184D01*
X045876Y012215D01*
X045859Y012249D01*
X045845Y012283D01*
X045836Y012319D01*
X045830Y012356D01*
X045828Y012393D01*
X049553Y001873D02*
X049555Y001923D01*
X049561Y001973D01*
X049571Y002022D01*
X049585Y002070D01*
X049602Y002117D01*
X049623Y002162D01*
X049648Y002206D01*
X049676Y002247D01*
X049708Y002286D01*
X049742Y002323D01*
X049779Y002357D01*
X049819Y002387D01*
X049861Y002414D01*
X049905Y002438D01*
X049951Y002459D01*
X049998Y002475D01*
X050046Y002488D01*
X050096Y002497D01*
X050145Y002502D01*
X050196Y002503D01*
X050246Y002500D01*
X050295Y002493D01*
X050344Y002482D01*
X050392Y002467D01*
X050438Y002449D01*
X050483Y002427D01*
X050526Y002401D01*
X050567Y002372D01*
X050606Y002340D01*
X050642Y002305D01*
X050674Y002267D01*
X050704Y002227D01*
X050731Y002184D01*
X050754Y002140D01*
X050773Y002094D01*
X050789Y002046D01*
X050801Y001997D01*
X050809Y001948D01*
X050813Y001898D01*
X050813Y001848D01*
X050809Y001798D01*
X050801Y001749D01*
X050789Y001700D01*
X050773Y001652D01*
X050754Y001606D01*
X050731Y001562D01*
X050704Y001519D01*
X050674Y001479D01*
X050642Y001441D01*
X050606Y001406D01*
X050567Y001374D01*
X050526Y001345D01*
X050483Y001319D01*
X050438Y001297D01*
X050392Y001279D01*
X050344Y001264D01*
X050295Y001253D01*
X050246Y001246D01*
X050196Y001243D01*
X050145Y001244D01*
X050096Y001249D01*
X050046Y001258D01*
X049998Y001271D01*
X049951Y001287D01*
X049905Y001308D01*
X049861Y001332D01*
X049819Y001359D01*
X049779Y001389D01*
X049742Y001423D01*
X049708Y001460D01*
X049676Y001499D01*
X049648Y001540D01*
X049623Y001584D01*
X049602Y001629D01*
X049585Y001676D01*
X049571Y001724D01*
X049561Y001773D01*
X049555Y001823D01*
X049553Y001873D01*
X011828Y009103D02*
X011830Y009140D01*
X011836Y009177D01*
X011845Y009213D01*
X011859Y009247D01*
X011876Y009280D01*
X011896Y009312D01*
X011919Y009341D01*
X011945Y009367D01*
X011974Y009390D01*
X012005Y009410D01*
X012039Y009427D01*
X012073Y009441D01*
X012109Y009450D01*
X012146Y009456D01*
X012183Y009458D01*
X012220Y009456D01*
X012257Y009450D01*
X012293Y009441D01*
X012327Y009427D01*
X012360Y009410D01*
X012392Y009390D01*
X012421Y009367D01*
X012447Y009341D01*
X012470Y009312D01*
X012490Y009281D01*
X012507Y009247D01*
X012521Y009213D01*
X012530Y009177D01*
X012536Y009140D01*
X012538Y009103D01*
X012536Y009066D01*
X012530Y009029D01*
X012521Y008993D01*
X012507Y008959D01*
X012490Y008926D01*
X012470Y008894D01*
X012447Y008865D01*
X012421Y008839D01*
X012392Y008816D01*
X012361Y008796D01*
X012327Y008779D01*
X012293Y008765D01*
X012257Y008756D01*
X012220Y008750D01*
X012183Y008748D01*
X012146Y008750D01*
X012109Y008756D01*
X012073Y008765D01*
X012039Y008779D01*
X012006Y008796D01*
X011974Y008816D01*
X011945Y008839D01*
X011919Y008865D01*
X011896Y008894D01*
X011876Y008925D01*
X011859Y008959D01*
X011845Y008993D01*
X011836Y009029D01*
X011830Y009066D01*
X011828Y009103D01*
X001053Y028873D02*
X001055Y028923D01*
X001061Y028973D01*
X001071Y029022D01*
X001085Y029070D01*
X001102Y029117D01*
X001123Y029162D01*
X001148Y029206D01*
X001176Y029247D01*
X001208Y029286D01*
X001242Y029323D01*
X001279Y029357D01*
X001319Y029387D01*
X001361Y029414D01*
X001405Y029438D01*
X001451Y029459D01*
X001498Y029475D01*
X001546Y029488D01*
X001596Y029497D01*
X001645Y029502D01*
X001696Y029503D01*
X001746Y029500D01*
X001795Y029493D01*
X001844Y029482D01*
X001892Y029467D01*
X001938Y029449D01*
X001983Y029427D01*
X002026Y029401D01*
X002067Y029372D01*
X002106Y029340D01*
X002142Y029305D01*
X002174Y029267D01*
X002204Y029227D01*
X002231Y029184D01*
X002254Y029140D01*
X002273Y029094D01*
X002289Y029046D01*
X002301Y028997D01*
X002309Y028948D01*
X002313Y028898D01*
X002313Y028848D01*
X002309Y028798D01*
X002301Y028749D01*
X002289Y028700D01*
X002273Y028652D01*
X002254Y028606D01*
X002231Y028562D01*
X002204Y028519D01*
X002174Y028479D01*
X002142Y028441D01*
X002106Y028406D01*
X002067Y028374D01*
X002026Y028345D01*
X001983Y028319D01*
X001938Y028297D01*
X001892Y028279D01*
X001844Y028264D01*
X001795Y028253D01*
X001746Y028246D01*
X001696Y028243D01*
X001645Y028244D01*
X001596Y028249D01*
X001546Y028258D01*
X001498Y028271D01*
X001451Y028287D01*
X001405Y028308D01*
X001361Y028332D01*
X001319Y028359D01*
X001279Y028389D01*
X001242Y028423D01*
X001208Y028460D01*
X001176Y028499D01*
X001148Y028540D01*
X001123Y028584D01*
X001102Y028629D01*
X001085Y028676D01*
X001071Y028724D01*
X001061Y028773D01*
X001055Y028823D01*
X001053Y028873D01*
X049553Y028873D02*
X049555Y028923D01*
X049561Y028973D01*
X049571Y029022D01*
X049585Y029070D01*
X049602Y029117D01*
X049623Y029162D01*
X049648Y029206D01*
X049676Y029247D01*
X049708Y029286D01*
X049742Y029323D01*
X049779Y029357D01*
X049819Y029387D01*
X049861Y029414D01*
X049905Y029438D01*
X049951Y029459D01*
X049998Y029475D01*
X050046Y029488D01*
X050096Y029497D01*
X050145Y029502D01*
X050196Y029503D01*
X050246Y029500D01*
X050295Y029493D01*
X050344Y029482D01*
X050392Y029467D01*
X050438Y029449D01*
X050483Y029427D01*
X050526Y029401D01*
X050567Y029372D01*
X050606Y029340D01*
X050642Y029305D01*
X050674Y029267D01*
X050704Y029227D01*
X050731Y029184D01*
X050754Y029140D01*
X050773Y029094D01*
X050789Y029046D01*
X050801Y028997D01*
X050809Y028948D01*
X050813Y028898D01*
X050813Y028848D01*
X050809Y028798D01*
X050801Y028749D01*
X050789Y028700D01*
X050773Y028652D01*
X050754Y028606D01*
X050731Y028562D01*
X050704Y028519D01*
X050674Y028479D01*
X050642Y028441D01*
X050606Y028406D01*
X050567Y028374D01*
X050526Y028345D01*
X050483Y028319D01*
X050438Y028297D01*
X050392Y028279D01*
X050344Y028264D01*
X050295Y028253D01*
X050246Y028246D01*
X050196Y028243D01*
X050145Y028244D01*
X050096Y028249D01*
X050046Y028258D01*
X049998Y028271D01*
X049951Y028287D01*
X049905Y028308D01*
X049861Y028332D01*
X049819Y028359D01*
X049779Y028389D01*
X049742Y028423D01*
X049708Y028460D01*
X049676Y028499D01*
X049648Y028540D01*
X049623Y028584D01*
X049602Y028629D01*
X049585Y028676D01*
X049571Y028724D01*
X049561Y028773D01*
X049555Y028823D01*
X049553Y028873D01*
D11*
X000683Y029373D02*
X000683Y001373D01*
X000683Y001372D02*
X000701Y001304D01*
X000722Y001236D01*
X000747Y001169D01*
X000775Y001104D01*
X000807Y001041D01*
X000842Y000979D01*
X000881Y000920D01*
X000923Y000862D01*
X000968Y000807D01*
X001015Y000755D01*
X001066Y000705D01*
X001119Y000658D01*
X001175Y000614D01*
X001233Y000573D01*
X001293Y000535D01*
X001355Y000500D01*
X001419Y000469D01*
X001485Y000442D01*
X001552Y000418D01*
X001620Y000398D01*
X001689Y000381D01*
X001759Y000368D01*
X001829Y000359D01*
X001900Y000354D01*
X001971Y000353D01*
X002042Y000356D01*
X002113Y000362D01*
X002183Y000373D01*
X050183Y000373D01*
X050245Y000377D01*
X050307Y000384D01*
X050369Y000395D01*
X050429Y000410D01*
X050489Y000428D01*
X050547Y000450D01*
X050604Y000475D01*
X050660Y000504D01*
X050713Y000536D01*
X050765Y000572D01*
X050814Y000610D01*
X050860Y000651D01*
X050905Y000696D01*
X050946Y000742D01*
X050984Y000791D01*
X051020Y000843D01*
X051052Y000896D01*
X051081Y000952D01*
X051106Y001009D01*
X051128Y001067D01*
X051146Y001127D01*
X051161Y001187D01*
X051172Y001249D01*
X051179Y001311D01*
X051183Y001373D01*
X051183Y028873D01*
X051194Y028943D01*
X051200Y029014D01*
X051203Y029085D01*
X051202Y029156D01*
X051197Y029227D01*
X051188Y029297D01*
X051175Y029367D01*
X051158Y029436D01*
X051138Y029504D01*
X051114Y029571D01*
X051087Y029637D01*
X051056Y029701D01*
X051021Y029763D01*
X050983Y029823D01*
X050942Y029881D01*
X050898Y029937D01*
X050851Y029990D01*
X050801Y030041D01*
X050749Y030088D01*
X050694Y030133D01*
X050636Y030175D01*
X050577Y030214D01*
X050515Y030249D01*
X050452Y030281D01*
X050387Y030309D01*
X050320Y030334D01*
X050252Y030355D01*
X050184Y030373D01*
X050183Y030373D02*
X001683Y030373D01*
X001621Y030369D01*
X001559Y030362D01*
X001497Y030351D01*
X001437Y030336D01*
X001377Y030318D01*
X001319Y030296D01*
X001262Y030271D01*
X001206Y030242D01*
X001153Y030210D01*
X001101Y030174D01*
X001052Y030136D01*
X001006Y030095D01*
X000961Y030050D01*
X000920Y030004D01*
X000882Y029955D01*
X000846Y029903D01*
X000814Y029850D01*
X000785Y029794D01*
X000760Y029737D01*
X000738Y029679D01*
X000720Y029619D01*
X000705Y029559D01*
X000694Y029497D01*
X000687Y029435D01*
X000683Y029373D01*
M02*
